<svg version="1.1" id="Layer_1" xmlns="http://www.w3.org/2000/svg" xmlns:xlink="http://www.w3.org/1999/xlink" x="0px" y="0px"
	 width="100%" viewBox="0 0 1179 1164" enable-background="new 0 0 1179 1164" xml:space="preserve">
<path fill="#FEFFFF" opacity="1.000000" stroke="none" 
	d="
M1176.000000,1165.000000 
	C785.633911,1165.000000 395.267883,1165.000000 4.450613,1164.549072 
	C3.999611,776.398743 3.999805,388.699371 4.000000,1.000000 
	C394.366058,1.000000 784.732117,1.000000 1175.549072,1.450905 
	C1176.000000,389.601196 1176.000000,777.300598 1176.000000,1165.000000 
M547.271729,210.812439 
	C537.294617,214.022461 527.273682,217.105133 517.364258,220.512161 
	C513.935730,221.690948 511.253632,221.443817 508.071716,219.550095 
	C482.308472,204.217163 456.396149,189.134674 430.632751,173.802048 
	C427.751007,172.087036 425.397736,171.902328 422.299500,172.909561 
	C373.417053,188.801056 324.522461,204.656662 275.553101,220.277313 
	C270.654846,221.839798 268.992981,223.854156 268.999878,229.181992 
	C269.179138,367.999512 269.142548,506.817322 269.143066,645.635071 
	C269.143097,647.575317 269.143066,649.515625 269.143066,651.507080 
	C322.184418,651.507080 374.550293,651.507080 427.542511,651.507080 
	C427.542511,500.735138 427.542511,350.383728 427.542511,199.213409 
	C429.805573,200.416412 431.260651,201.143799 432.672424,201.947250 
	C457.137512,215.870697 481.541748,229.902878 506.115112,243.632446 
	C510.027222,245.818207 511.204163,248.256882 511.200165,252.608810 
	C511.079437,383.760620 511.100098,514.912598 511.098541,646.064514 
	C511.098511,647.841064 511.098511,649.617676 511.098511,651.525635 
	C564.119751,651.525635 616.488098,651.525635 669.460815,651.525635 
	C669.460815,500.775665 669.460815,350.425262 669.460815,199.286743 
	C671.842346,200.519821 673.457275,201.287155 675.007141,202.168793 
	C699.475159,216.087524 723.896606,230.089127 748.439636,243.874207 
	C751.940002,245.840240 753.114380,248.068726 753.111023,252.066040 
	C753.001953,383.051239 753.022888,514.036560 753.024658,645.021851 
	C753.024658,647.136108 753.024658,649.250366 753.024658,651.542236 
	C805.990967,651.542236 858.363159,651.542236 910.748169,651.542236 
	C910.748169,491.472992 910.748169,331.788544 910.748169,171.710480 
	C909.033325,172.195068 907.768738,172.509308 906.531494,172.908203 
	C857.451111,188.733032 808.357361,204.516830 759.326660,220.494278 
	C755.608765,221.705826 752.891418,221.282669 749.636841,219.343628 
	C724.165771,204.168121 698.564026,189.212189 673.087402,174.045975 
	C669.977844,172.194855 667.336731,171.836914 663.837158,172.981659 
	C625.262451,185.599915 586.630188,198.042175 547.271729,210.812439 
M104.014153,782.500000 
	C104.014153,813.410645 104.014153,844.321289 104.014153,875.347778 
	C145.940170,875.347778 187.164536,875.347778 228.613861,875.347778 
	C228.613861,821.133423 228.613861,767.245728 228.613861,713.223389 
	C187.000061,713.223389 145.646347,713.223389 104.014153,713.223389 
	C104.014153,736.229858 104.014153,758.864929 104.014153,782.500000 
M1001.789246,841.414368 
	C1003.290771,812.891968 1004.792297,784.369568 1006.289124,755.936890 
	C1012.612305,755.936890 1018.175476,755.936890 1024.070923,755.936890 
	C1024.070923,757.949829 1024.070923,759.588196 1024.070923,761.226562 
	C1024.070923,781.053650 1024.071289,800.880676 1024.070557,820.707764 
	C1024.070190,831.987427 1023.722412,832.373962 1012.660706,833.563538 
	C1012.387817,833.592834 1012.148193,833.931335 1011.839294,834.166565 
	C1011.839294,847.564758 1011.839294,860.990906 1011.839294,874.760498 
	C1025.190674,876.455750 1038.319092,877.278137 1051.323853,874.659424 
	C1064.363403,872.033630 1072.440674,863.758179 1075.002808,850.690796 
	C1076.083130,845.181213 1076.498535,839.462158 1076.516479,833.836182 
	C1076.639038,795.348755 1076.575684,756.860718 1076.572144,718.372925 
	C1076.572021,716.621948 1076.572144,714.870972 1076.572144,713.064941 
	C1032.226562,713.064941 988.615295,713.064941 944.776733,713.064941 
	C944.776733,727.181946 944.776733,741.085999 944.776733,755.497681 
	C948.290039,755.497681 951.530823,755.497681 955.364807,755.497681 
	C952.382141,795.773804 949.439819,835.505310 946.484253,875.415283 
	C964.632019,875.415283 982.050415,875.415283 999.875427,875.415283 
	C1000.503479,864.238953 1001.117798,853.305542 1001.789246,841.414368 
M875.499878,875.671448 
	C894.774841,875.671448 914.049805,875.671448 933.603699,875.671448 
	C933.603699,861.381226 933.603699,847.654907 933.603699,833.557739 
	C930.151489,833.394348 926.908997,833.240845 923.161560,833.063477 
	C923.161560,792.826599 923.161560,752.966248 923.161560,713.225220 
	C891.084045,713.225220 859.538940,713.225220 828.111450,713.225220 
	C828.111450,727.496399 828.111450,741.388855 828.111450,755.744141 
	C842.433899,755.744141 856.366211,755.744141 870.458130,755.744141 
	C870.458130,781.780945 870.458130,807.344421 870.458130,833.546143 
	C855.609863,833.546143 841.062195,833.546143 826.680542,833.546143 
	C826.680542,847.922852 826.680542,861.656921 826.680542,875.671448 
	C842.883911,875.671448 858.691833,875.671448 875.499878,875.671448 
M637.499817,755.568054 
	C649.919922,755.568054 662.340088,755.568054 675.295898,755.568054 
	C675.295898,795.897583 675.295898,835.586548 675.295898,875.369507 
	C693.075806,875.369507 710.307617,875.369507 727.610840,875.369507 
	C727.610840,821.061157 727.610840,767.070557 727.610840,713.130615 
	C687.316711,713.130615 647.414673,713.130615 607.352295,713.130615 
	C607.352295,727.295410 607.352295,741.178711 607.352295,755.567993 
	C617.253906,755.567993 626.876831,755.567993 637.499817,755.568054 
M473.063232,762.550903 
	C473.063232,800.122803 473.063232,837.694702 473.063232,875.342407 
	C490.987518,875.342407 508.217072,875.342407 526.030701,875.342407 
	C526.030701,835.300354 526.030701,795.591797 526.030701,755.431091 
	C530.382568,755.431091 534.149963,755.431091 537.991333,755.431091 
	C537.991333,741.060181 537.991333,727.150085 537.991333,713.262085 
	C502.535431,713.262085 467.348450,713.262085 432.205780,713.262085 
	C432.205780,727.446960 432.205780,741.220398 432.205780,755.590576 
	C445.825439,755.590576 459.220734,755.590576 473.063141,755.590576 
	C473.063141,757.978149 473.063141,759.771790 473.063232,762.550903 
M367.015625,850.500000 
	C367.015625,858.753540 367.015625,867.007080 367.015625,875.327942 
	C384.943634,875.327942 402.165192,875.327942 419.584198,875.327942 
	C419.676270,873.692810 419.813416,872.390137 419.813721,871.087463 
	C419.822571,830.119629 419.832611,789.151855 419.788452,748.184021 
	C419.784882,744.861633 419.558685,741.519836 419.158112,738.220764 
	C417.461670,724.249695 410.263733,716.163147 397.018524,713.506287 
	C394.111023,712.923035 391.061157,712.884888 388.076233,712.878235 
	C365.927094,712.829285 343.777740,712.845642 321.628510,712.867615 
	C320.370117,712.868896 319.111969,713.099915 317.955872,713.213928 
	C317.955872,727.462769 317.955872,741.345459 317.955872,755.576111 
	C330.824036,755.576111 343.297882,755.577332 355.771698,755.575745 
	C367.012848,755.574341 367.015503,755.572937 367.016052,767.064758 
	C367.017395,794.543152 367.015961,822.021606 367.015625,850.500000 
M744.829468,875.672607 
	C757.975708,875.482117 771.145020,875.708252 784.261414,874.980103 
	C796.550049,874.297913 806.686462,869.055847 810.903625,856.722351 
	C812.904602,850.870239 813.672241,844.343140 813.709534,838.114075 
	C813.949829,797.987549 813.835632,757.859009 813.825378,717.731079 
	C813.825012,716.273987 813.695801,714.816895 813.618225,713.183228 
	C789.638489,713.183228 765.946289,713.183228 742.254883,713.183228 
	C742.254883,727.391113 742.254883,741.264038 742.254883,755.627441 
	C748.665283,755.627441 754.742126,755.627441 761.184875,755.627441 
	C761.184875,780.061951 761.201965,804.003845 761.167175,827.945740 
	C761.161743,831.684875 758.936951,833.280884 755.380493,833.289124 
	C750.766296,833.299866 746.152100,833.291809 741.066650,833.291809 
	C741.066650,847.012756 741.015686,860.125122 741.188110,873.234619 
	C741.198914,874.057190 742.956360,874.856750 744.829468,875.672607 
M252.238678,768.503845 
	C252.238678,804.079102 252.238678,839.654419 252.238678,875.408020 
	C270.118774,875.408020 287.360291,875.408020 304.774719,875.408020 
	C304.774719,821.134521 304.774719,767.132202 304.774719,713.086182 
	C283.507782,713.086182 262.584106,713.086182 241.410797,713.086182 
	C241.410797,727.212036 241.410797,741.102966 241.410797,755.557495 
	C245.045990,755.557495 248.443130,755.557495 252.238708,755.557495 
	C252.238708,759.908325 252.238708,763.707336 252.238678,768.503845 
M658.424500,873.838501 
	C658.424500,841.714600 658.424500,809.590698 658.424500,777.378601 
	C641.595337,777.378601 625.331543,777.378601 608.854126,777.378601 
	C608.854126,810.174194 608.854126,842.726379 608.854126,875.569397 
	C625.187744,875.569397 641.158752,875.575256 657.129639,875.533630 
	C657.509399,875.532593 657.887756,874.999084 658.424500,873.838501 
M599.547974,976.039673 
	C607.470398,976.039673 615.392761,976.039673 623.340515,976.039673 
	C623.340515,956.300537 623.340515,937.234131 623.340515,918.044006 
	C612.112305,918.044006 601.188660,918.044006 590.046997,918.044006 
	C590.046997,937.386780 590.046997,956.485901 590.046997,976.039185 
	C592.965576,976.039185 595.768005,976.039185 599.547974,976.039673 
M521.605225,917.817932 
	C516.656982,917.817932 511.708679,917.817932 506.691101,917.817932 
	C506.691101,929.149780 506.691101,939.894226 506.691101,950.782104 
	C511.694214,950.782104 516.428772,950.782104 521.289185,950.782104 
	C521.289185,948.760132 521.289185,947.018250 521.289185,945.138428 
	C518.597900,944.997009 516.189026,944.870422 513.971130,944.753906 
	C513.971130,937.789856 513.971130,931.368530 513.971130,924.799255 
	C519.512085,924.799255 524.712646,924.799255 530.237305,924.799255 
	C530.237305,938.443359 530.211853,951.733154 530.255249,965.022705 
	C530.266052,968.334778 528.457153,969.344788 525.507874,969.328125 
	C519.220947,969.292725 512.933777,969.317322 506.407196,969.317322 
	C506.407196,971.770081 506.407196,973.666626 506.407196,975.920654 
	C513.875488,975.920654 521.171631,976.168823 528.440796,975.832947 
	C533.231628,975.611450 536.943542,971.974609 537.025818,966.996094 
	C537.294495,950.742004 537.126587,934.480774 537.126587,917.818176 
	C532.159485,917.818176 527.365540,917.818176 521.605225,917.817932 
M724.867920,953.788635 
	C724.639099,949.782776 725.356140,946.202637 729.614380,943.688660 
	C734.231995,952.815369 739.086060,961.668762 743.202454,970.852783 
	C745.311340,975.557922 748.039978,977.078125 753.126526,975.527893 
	C750.447815,970.131104 748.080688,964.628845 745.057434,959.514526 
	C742.836731,955.757874 743.080444,953.306641 746.213806,950.111511 
	C748.497192,947.783203 750.536743,944.260742 750.811035,941.107605 
	C751.469238,933.539734 751.023987,925.875854 751.023987,918.228149 
	C748.617065,918.228149 746.419922,918.228149 744.644104,918.228149 
	C742.082153,928.281738 747.279419,938.974854 740.157776,949.245605 
	C735.340088,939.751038 730.758362,931.499084 726.947510,922.905396 
	C724.824158,918.117188 721.999329,916.799133 716.921875,918.434998 
	C720.063721,924.986877 723.187012,931.500000 725.743835,936.831848 
	C722.730835,941.622864 718.731201,945.269714 718.224243,949.350525 
	C717.149902,957.997925 717.896667,966.871582 717.896667,975.794312 
	C720.186157,975.794312 722.286011,975.794312 724.869751,975.794312 
	C724.869751,968.619751 724.869751,961.672363 724.867920,953.788635 
M792.382141,961.254944 
	C792.382141,946.856384 792.382141,932.457764 792.382141,918.050903 
	C781.775940,918.050903 771.837158,918.050903 761.669861,918.050903 
	C761.669861,929.035156 761.669861,939.786560 761.669861,950.801270 
	C766.626648,950.801270 771.356384,950.801270 776.332458,950.801270 
	C776.332458,948.858337 776.332458,947.117126 776.332458,945.161987 
	C773.685120,945.013245 771.274231,944.877686 768.926392,944.745728 
	C768.926392,937.890625 768.926392,931.465759 768.926392,924.747559 
	C774.406250,924.747559 779.609497,924.747559 785.261536,924.747559 
	C785.261536,937.810669 785.116516,950.593750 785.338013,963.370483 
	C785.418579,968.021790 783.600586,969.575684 779.149170,969.398560 
	C773.239136,969.163330 767.312622,969.340515 761.507812,969.340515 
	C761.507812,972.008850 761.507812,973.900757 761.507812,976.024048 
	C767.341614,976.024048 772.820374,976.025818 778.299133,976.023743 
	C789.156738,976.019653 792.103271,973.122253 792.382141,961.254944 
M486.506348,953.574768 
	C482.635101,960.864685 478.763855,968.154663 474.086945,976.961731 
	C478.005554,975.861328 481.580902,975.979370 482.813904,974.337891 
	C495.384552,957.603577 498.467316,938.563110 495.289734,917.743103 
	C488.228851,917.743103 480.993042,917.743103 473.206024,917.743103 
	C473.206024,913.367004 473.206024,909.464355 473.206024,905.571960 
	C470.552399,905.571960 468.479492,905.571960 466.298706,905.571960 
	C466.298706,911.971191 466.298706,918.033508 466.298706,924.658203 
	C473.824951,924.658203 481.068481,924.658203 489.617188,924.658203 
	C488.640015,934.495178 487.729370,943.662476 486.506348,953.574768 
M676.433167,917.821045 
	C671.164490,917.821045 665.895813,917.821045 660.082336,917.821045 
	C660.082336,913.284241 660.082336,909.386414 660.082336,905.633423 
	C657.429993,905.633423 655.368896,905.633423 653.361206,905.633423 
	C653.361206,912.095825 653.361206,918.158386 653.361206,924.782104 
	C660.958374,924.782104 668.213501,924.782104 674.799927,924.782104 
	C679.322815,944.285278 671.784058,960.225220 661.370117,975.371338 
	C666.949646,977.086609 670.099182,975.724792 672.042664,970.990417 
	C673.424377,967.624634 675.417664,964.490356 677.311768,961.357788 
	C685.567932,947.702576 682.557556,932.760437 682.974121,917.822266 
	C680.707092,917.822266 679.058655,917.822266 676.433167,917.821045 
M447.499329,972.145264 
	C447.290070,978.875183 451.804047,975.177490 454.959351,975.919434 
	C454.959351,958.609863 454.959351,941.868652 454.959351,925.212585 
	C456.730286,924.739258 458.113922,924.369446 459.333771,924.043396 
	C459.333771,921.829834 459.333771,919.945862 459.333771,918.101746 
	C448.373444,918.101746 437.795990,918.101746 427.293640,918.101746 
	C427.293640,920.319519 427.293640,922.243958 427.293640,924.767883 
	C434.119202,924.767883 440.679657,924.767883 447.492554,924.767883 
	C447.492554,940.653259 447.492554,955.935486 447.499329,972.145264 
M411.597504,929.471313 
	C411.597504,944.894226 411.597504,960.317139 411.597504,975.730103 
	C414.354950,975.730103 416.441620,975.730103 418.611542,975.730103 
	C418.611542,956.359131 418.611542,937.290161 418.611542,918.067993 
	C407.532898,918.067993 396.768768,918.067993 385.977509,918.067993 
	C385.977509,920.256165 385.977509,922.181946 385.977509,924.624268 
	C393.393463,924.624268 400.521301,924.751953 407.640717,924.563599 
	C410.639008,924.484314 412.087189,925.316101 411.597504,929.471313 
M704.818481,973.344055 
	C705.669739,970.208801 707.150879,967.094299 707.254944,963.934448 
	C707.578491,954.112427 707.380310,944.273193 707.383118,934.440674 
	C707.384644,928.999207 707.383423,923.557800 707.383423,918.203735 
	C701.889099,918.203735 696.998535,918.203735 692.218750,918.203735 
	C692.218750,920.495056 692.218750,922.402100 692.218750,924.390686 
	C695.006104,924.573120 697.429504,924.731750 700.158020,924.910339 
	C700.158020,936.724792 700.127258,948.199036 700.167053,959.673035 
	C700.204407,970.440552 700.211914,969.469116 690.841919,969.421570 
	C690.388367,969.419312 689.933044,969.748657 689.449829,969.934753 
	C689.449829,971.895325 689.449829,973.796021 689.449829,976.950806 
	C694.726807,975.843689 699.478516,974.846680 704.818481,973.344055 
M558.198059,927.520203 
	C558.198059,924.416016 558.198059,921.311829 558.198059,918.253784 
	C553.486755,918.253784 549.301086,918.253784 545.262207,918.253784 
	C545.262207,920.469055 545.262207,922.253906 545.262207,924.221375 
	C547.201416,924.504517 548.936584,924.757874 551.185425,925.086243 
	C551.185425,942.138123 551.185425,958.990906 551.185425,975.680725 
	C553.838928,975.680725 555.916321,975.680725 558.198059,975.680725 
	C558.198059,959.733154 558.198059,944.123169 558.198059,927.520203 
M637.990051,930.618591 
	C637.990051,937.516541 637.990051,944.414551 637.990051,951.289185 
	C640.805664,951.289185 642.860046,951.289185 645.003174,951.289185 
	C645.003174,940.025757 645.003174,929.122864 645.003174,918.233398 
	C640.556458,918.233398 636.346924,918.233398 632.232727,918.233398 
	C632.232727,920.434570 632.232727,922.225037 632.232727,924.211853 
	C634.150208,924.492310 635.886292,924.746216 637.989319,925.053772 
	C637.989319,926.708862 637.989319,928.179932 637.990051,930.618591 
M394.180878,941.778687 
	C392.047821,941.031494 389.914795,940.284363 387.323242,939.376587 
	C387.323242,952.320374 387.323242,963.998840 387.323242,975.754761 
	C389.707947,975.754761 391.779114,975.754761 394.199677,975.754761 
	C394.199677,964.567749 394.199677,953.649170 394.180878,941.778687 
z"/>
<path fill="#F4F4F4" opacity="1.000000" stroke="none" 
	d="
M1176.499023,1165.000000 
	C1176.000000,777.300598 1176.000000,389.601196 1176.000000,1.450905 
	C1177.332764,1.000000 1178.665527,1.000000 1179.998291,1.000000 
	C1179.998413,389.000000 1179.998413,777.000000 1179.997559,1165.000000 
	C1178.997192,1165.000000 1177.997681,1165.000000 1176.499023,1165.000000 
z"/>
<path fill="#F4F4F4" opacity="1.000000" stroke="none" 
	d="
M3.500004,1.000000 
	C3.999805,388.699371 3.999611,776.398743 3.999708,1164.549072 
	C2.345619,1164.951904 0.128297,1165.621338 0.975729,1162.493408 
	C1.143979,1161.872437 1.000000,1161.166626 1.000000,1160.500000 
	C1.000000,775.500000 0.996665,390.500000 1.141219,5.500053 
	C1.141703,4.211147 -1.328464,0.872526 3.500004,1.000000 
z"/>
<path fill="#4BA056" opacity="1.000000" stroke="none" 
	d="
M547.642578,210.672302 
	C586.630188,198.042175 625.262451,185.599915 663.837158,172.981659 
	C667.336731,171.836914 669.977844,172.194855 673.087402,174.045975 
	C698.564026,189.212189 724.165771,204.168121 749.636841,219.343628 
	C752.891418,221.282669 755.608765,221.705826 759.326660,220.494278 
	C808.357361,204.516830 857.451111,188.733032 906.531494,172.908203 
	C907.768738,172.509308 909.033325,172.195068 910.748169,171.710480 
	C910.748169,331.788544 910.748169,491.472992 910.748169,651.542236 
	C858.363159,651.542236 805.990967,651.542236 753.024658,651.542236 
	C753.024658,649.250366 753.024658,647.136108 753.024658,645.021851 
	C753.022888,514.036560 753.001953,383.051239 753.111023,252.066040 
	C753.114380,248.068726 751.940002,245.840240 748.439636,243.874207 
	C723.896606,230.089127 699.475159,216.087524 675.007141,202.168793 
	C673.457275,201.287155 671.842346,200.519821 669.460815,199.286743 
	C669.460815,350.425262 669.460815,500.775665 669.460815,651.525635 
	C616.488098,651.525635 564.119751,651.525635 511.098511,651.525635 
	C511.098511,649.617676 511.098511,647.841064 511.098541,646.064514 
	C511.100098,514.912598 511.079437,383.760620 511.200165,252.608810 
	C511.204163,248.256882 510.027222,245.818207 506.115112,243.632446 
	C481.541748,229.902878 457.137512,215.870697 432.672424,201.947250 
	C431.260651,201.143799 429.805573,200.416412 427.542511,199.213409 
	C427.542511,350.383728 427.542511,500.735138 427.542511,651.507080 
	C374.550293,651.507080 322.184418,651.507080 269.143066,651.507080 
	C269.143066,649.515625 269.143097,647.575317 269.143066,645.635071 
	C269.142548,506.817322 269.179138,367.999512 268.999878,229.181992 
	C268.992981,223.854156 270.654846,221.839798 275.553101,220.277313 
	C324.522461,204.656662 373.417053,188.801056 422.299500,172.909561 
	C425.397736,171.902328 427.751007,172.087036 430.632751,173.802048 
	C456.396149,189.134674 482.308472,204.217163 508.071716,219.550095 
	C511.253632,221.443817 513.935730,221.690948 517.364258,220.512161 
	C527.273682,217.105133 537.294617,214.022461 547.642578,210.672302 
z"/>
<path fill="#162932" opacity="1.000000" stroke="none" 
	d="
M104.014153,782.000000 
	C104.014153,758.864929 104.014153,736.229858 104.014153,713.223389 
	C145.646347,713.223389 187.000061,713.223389 228.613861,713.223389 
	C228.613861,767.245728 228.613861,821.133423 228.613861,875.347778 
	C187.164536,875.347778 145.940170,875.347778 104.014153,875.347778 
	C104.014153,844.321289 104.014153,813.410645 104.014153,782.000000 
M156.811722,800.500000 
	C156.811722,811.272644 156.811722,822.045227 156.811722,833.047852 
	C163.446625,833.047852 169.509598,833.047852 175.797775,833.047852 
	C175.797775,807.199219 175.797775,781.639587 175.797775,755.859619 
	C169.461746,755.859619 163.403183,755.859619 156.811676,755.859619 
	C156.811676,770.608337 156.811676,785.054138 156.811722,800.500000 
z"/>
<path fill="#162932" opacity="1.000000" stroke="none" 
	d="
M1001.760742,841.893250 
	C1001.117798,853.305542 1000.503479,864.238953 999.875427,875.415283 
	C982.050415,875.415283 964.632019,875.415283 946.484253,875.415283 
	C949.439819,835.505310 952.382141,795.773804 955.364807,755.497681 
	C951.530823,755.497681 948.290039,755.497681 944.776733,755.497681 
	C944.776733,741.085999 944.776733,727.181946 944.776733,713.064941 
	C988.615295,713.064941 1032.226562,713.064941 1076.572144,713.064941 
	C1076.572144,714.870972 1076.572021,716.621948 1076.572144,718.372925 
	C1076.575684,756.860718 1076.639038,795.348755 1076.516479,833.836182 
	C1076.498535,839.462158 1076.083130,845.181213 1075.002808,850.690796 
	C1072.440674,863.758179 1064.363403,872.033630 1051.323853,874.659424 
	C1038.319092,877.278137 1025.190674,876.455750 1011.839294,874.760498 
	C1011.839294,860.990906 1011.839294,847.564758 1011.839294,834.166565 
	C1012.148193,833.931335 1012.387817,833.592834 1012.660706,833.563538 
	C1023.722412,832.373962 1024.070190,831.987427 1024.070557,820.707764 
	C1024.071289,800.880676 1024.070923,781.053650 1024.070923,761.226562 
	C1024.070923,759.588196 1024.070923,757.949829 1024.070923,755.936890 
	C1018.175476,755.936890 1012.612305,755.936890 1006.289124,755.936890 
	C1004.792297,784.369568 1003.290771,812.891968 1001.760742,841.893250 
z"/>
<path fill="#162932" opacity="1.000000" stroke="none" 
	d="
M874.999817,875.671448 
	C858.691833,875.671448 842.883911,875.671448 826.680542,875.671448 
	C826.680542,861.656921 826.680542,847.922852 826.680542,833.546143 
	C841.062195,833.546143 855.609863,833.546143 870.458130,833.546143 
	C870.458130,807.344421 870.458130,781.780945 870.458130,755.744141 
	C856.366211,755.744141 842.433899,755.744141 828.111450,755.744141 
	C828.111450,741.388855 828.111450,727.496399 828.111450,713.225220 
	C859.538940,713.225220 891.084045,713.225220 923.161560,713.225220 
	C923.161560,752.966248 923.161560,792.826599 923.161560,833.063477 
	C926.908997,833.240845 930.151489,833.394348 933.603699,833.557739 
	C933.603699,847.654907 933.603699,861.381226 933.603699,875.671448 
	C914.049805,875.671448 894.774841,875.671448 874.999817,875.671448 
z"/>
<path fill="#162932" opacity="1.000000" stroke="none" 
	d="
M636.999756,755.567993 
	C626.876831,755.567993 617.253906,755.567993 607.352295,755.567993 
	C607.352295,741.178711 607.352295,727.295410 607.352295,713.130615 
	C647.414673,713.130615 687.316711,713.130615 727.610840,713.130615 
	C727.610840,767.070557 727.610840,821.061157 727.610840,875.369507 
	C710.307617,875.369507 693.075806,875.369507 675.295898,875.369507 
	C675.295898,835.586548 675.295898,795.897583 675.295898,755.568054 
	C662.340088,755.568054 649.919922,755.568054 636.999756,755.567993 
z"/>
<path fill="#162932" opacity="1.000000" stroke="none" 
	d="
M473.063171,762.058167 
	C473.063141,759.771790 473.063141,757.978149 473.063141,755.590576 
	C459.220734,755.590576 445.825439,755.590576 432.205780,755.590576 
	C432.205780,741.220398 432.205780,727.446960 432.205780,713.262085 
	C467.348450,713.262085 502.535431,713.262085 537.991333,713.262085 
	C537.991333,727.150085 537.991333,741.060181 537.991333,755.431091 
	C534.149963,755.431091 530.382568,755.431091 526.030701,755.431091 
	C526.030701,795.591797 526.030701,835.300354 526.030701,875.342407 
	C508.217072,875.342407 490.987518,875.342407 473.063232,875.342407 
	C473.063232,837.694702 473.063232,800.122803 473.063171,762.058167 
z"/>
<path fill="#162932" opacity="1.000000" stroke="none" 
	d="
M367.015625,850.000000 
	C367.015961,822.021606 367.017395,794.543152 367.016052,767.064758 
	C367.015503,755.572937 367.012848,755.574341 355.771698,755.575745 
	C343.297882,755.577332 330.824036,755.576111 317.955872,755.576111 
	C317.955872,741.345459 317.955872,727.462769 317.955872,713.213928 
	C319.111969,713.099915 320.370117,712.868896 321.628510,712.867615 
	C343.777740,712.845642 365.927094,712.829285 388.076233,712.878235 
	C391.061157,712.884888 394.111023,712.923035 397.018524,713.506287 
	C410.263733,716.163147 417.461670,724.249695 419.158112,738.220764 
	C419.558685,741.519836 419.784882,744.861633 419.788452,748.184021 
	C419.832611,789.151855 419.822571,830.119629 419.813721,871.087463 
	C419.813416,872.390137 419.676270,873.692810 419.584198,875.327942 
	C402.165192,875.327942 384.943634,875.327942 367.015625,875.327942 
	C367.015625,867.007080 367.015625,858.753540 367.015625,850.000000 
z"/>
<path fill="#162932" opacity="1.000000" stroke="none" 
	d="
M744.365356,875.669800 
	C742.956360,874.856750 741.198914,874.057190 741.188110,873.234619 
	C741.015686,860.125122 741.066650,847.012756 741.066650,833.291809 
	C746.152100,833.291809 750.766296,833.299866 755.380493,833.289124 
	C758.936951,833.280884 761.161743,831.684875 761.167175,827.945740 
	C761.201965,804.003845 761.184875,780.061951 761.184875,755.627441 
	C754.742126,755.627441 748.665283,755.627441 742.254883,755.627441 
	C742.254883,741.264038 742.254883,727.391113 742.254883,713.183228 
	C765.946289,713.183228 789.638489,713.183228 813.618225,713.183228 
	C813.695801,714.816895 813.825012,716.273987 813.825378,717.731079 
	C813.835632,757.859009 813.949829,797.987549 813.709534,838.114075 
	C813.672241,844.343140 812.904602,850.870239 810.903625,856.722351 
	C806.686462,869.055847 796.550049,874.297913 784.261414,874.980103 
	C771.145020,875.708252 757.975708,875.482117 744.365356,875.669800 
z"/>
<path fill="#162932" opacity="1.000000" stroke="none" 
	d="
M252.238693,768.005127 
	C252.238708,763.707336 252.238708,759.908325 252.238708,755.557495 
	C248.443130,755.557495 245.045990,755.557495 241.410797,755.557495 
	C241.410797,741.102966 241.410797,727.212036 241.410797,713.086182 
	C262.584106,713.086182 283.507782,713.086182 304.774719,713.086182 
	C304.774719,767.132202 304.774719,821.134521 304.774719,875.408020 
	C287.360291,875.408020 270.118774,875.408020 252.238678,875.408020 
	C252.238678,839.654419 252.238678,804.079102 252.238693,768.005127 
z"/>
<path fill="#152932" opacity="1.000000" stroke="none" 
	d="
M658.345642,874.276245 
	C657.887756,874.999084 657.509399,875.532593 657.129639,875.533630 
	C641.158752,875.575256 625.187744,875.569397 608.854126,875.569397 
	C608.854126,842.726379 608.854126,810.174194 608.854126,777.378601 
	C625.331543,777.378601 641.595337,777.378601 658.424500,777.378601 
	C658.424500,809.590698 658.424500,841.714600 658.345642,874.276245 
z"/>
<path fill="#283840" opacity="1.000000" stroke="none" 
	d="
M599.059204,976.039429 
	C595.768005,976.039185 592.965576,976.039185 590.046997,976.039185 
	C590.046997,956.485901 590.046997,937.386780 590.046997,918.044006 
	C601.188660,918.044006 612.112305,918.044006 623.340515,918.044006 
	C623.340515,937.234131 623.340515,956.300537 623.340515,976.039673 
	C615.392761,976.039673 607.470398,976.039673 599.059204,976.039429 
M597.039185,956.489929 
	C597.039185,960.595093 597.039185,964.700256 597.039185,968.947388 
	C603.771973,968.947388 609.952515,968.947388 616.048462,968.947388 
	C616.048462,954.040405 616.048462,939.517334 616.048462,924.935425 
	C609.646667,924.935425 603.590149,924.935425 597.672302,924.935425 
	C597.390686,925.528503 597.134827,925.816772 597.133484,926.106262 
	C597.087097,935.901489 597.064880,945.696838 597.039185,956.489929 
z"/>
<path fill="#21323A" opacity="1.000000" stroke="none" 
	d="
M522.088379,917.818054 
	C527.365540,917.818176 532.159485,917.818176 537.126587,917.818176 
	C537.126587,934.480774 537.294495,950.742004 537.025818,966.996094 
	C536.943542,971.974609 533.231628,975.611450 528.440796,975.832947 
	C521.171631,976.168823 513.875488,975.920654 506.407196,975.920654 
	C506.407196,973.666626 506.407196,971.770081 506.407196,969.317322 
	C512.933777,969.317322 519.220947,969.292725 525.507874,969.328125 
	C528.457153,969.344788 530.266052,968.334778 530.255249,965.022705 
	C530.211853,951.733154 530.237305,938.443359 530.237305,924.799255 
	C524.712646,924.799255 519.512085,924.799255 513.971130,924.799255 
	C513.971130,931.368530 513.971130,937.789856 513.971130,944.753906 
	C516.189026,944.870422 518.597900,944.997009 521.289185,945.138428 
	C521.289185,947.018250 521.289185,948.760132 521.289185,950.782104 
	C516.428772,950.782104 511.694214,950.782104 506.691101,950.782104 
	C506.691101,939.894226 506.691101,929.149780 506.691101,917.817932 
	C511.708679,917.817932 516.656982,917.817932 522.088379,917.818054 
z"/>
<path fill="#22333B" opacity="1.000000" stroke="none" 
	d="
M724.868835,954.256836 
	C724.869751,961.672363 724.869751,968.619751 724.869751,975.794312 
	C722.286011,975.794312 720.186157,975.794312 717.896667,975.794312 
	C717.896667,966.871582 717.149902,957.997925 718.224243,949.350525 
	C718.731201,945.269714 722.730835,941.622864 725.743835,936.831848 
	C723.187012,931.500000 720.063721,924.986877 716.921875,918.434998 
	C721.999329,916.799133 724.824158,918.117188 726.947510,922.905396 
	C730.758362,931.499084 735.340088,939.751038 740.157776,949.245605 
	C747.279419,938.974854 742.082153,928.281738 744.644104,918.228149 
	C746.419922,918.228149 748.617065,918.228149 751.023987,918.228149 
	C751.023987,925.875854 751.469238,933.539734 750.811035,941.107605 
	C750.536743,944.260742 748.497192,947.783203 746.213806,950.111511 
	C743.080444,953.306641 742.836731,955.757874 745.057434,959.514526 
	C748.080688,964.628845 750.447815,970.131104 753.126526,975.527893 
	C748.039978,977.078125 745.311340,975.557922 743.202454,970.852783 
	C739.086060,961.668762 734.231995,952.815369 729.614380,943.688660 
	C725.356140,946.202637 724.639099,949.782776 724.868835,954.256836 
z"/>
<path fill="#21323A" opacity="1.000000" stroke="none" 
	d="
M792.382324,961.717468 
	C792.103271,973.122253 789.156738,976.019653 778.299133,976.023743 
	C772.820374,976.025818 767.341614,976.024048 761.507812,976.024048 
	C761.507812,973.900757 761.507812,972.008850 761.507812,969.340515 
	C767.312622,969.340515 773.239136,969.163330 779.149170,969.398560 
	C783.600586,969.575684 785.418579,968.021790 785.338013,963.370483 
	C785.116516,950.593750 785.261536,937.810669 785.261536,924.747559 
	C779.609497,924.747559 774.406250,924.747559 768.926392,924.747559 
	C768.926392,931.465759 768.926392,937.890625 768.926392,944.745728 
	C771.274231,944.877686 773.685120,945.013245 776.332458,945.161987 
	C776.332458,947.117126 776.332458,948.858337 776.332458,950.801270 
	C771.356384,950.801270 766.626648,950.801270 761.669861,950.801270 
	C761.669861,939.786560 761.669861,929.035156 761.669861,918.050903 
	C771.837158,918.050903 781.775940,918.050903 792.382141,918.050903 
	C792.382141,932.457764 792.382141,946.856384 792.382324,961.717468 
z"/>
<path fill="#23343C" opacity="1.000000" stroke="none" 
	d="
M486.662537,953.202271 
	C487.729370,943.662476 488.640015,934.495178 489.617188,924.658203 
	C481.068481,924.658203 473.824951,924.658203 466.298706,924.658203 
	C466.298706,918.033508 466.298706,911.971191 466.298706,905.571960 
	C468.479492,905.571960 470.552399,905.571960 473.206024,905.571960 
	C473.206024,909.464355 473.206024,913.367004 473.206024,917.743103 
	C480.993042,917.743103 488.228851,917.743103 495.289734,917.743103 
	C498.467316,938.563110 495.384552,957.603577 482.813904,974.337891 
	C481.580902,975.979370 478.005554,975.861328 474.086945,976.961731 
	C478.763855,968.154663 482.635101,960.864685 486.662537,953.202271 
z"/>
<path fill="#23343C" opacity="1.000000" stroke="none" 
	d="
M676.921753,917.821655 
	C679.058655,917.822266 680.707092,917.822266 682.974121,917.822266 
	C682.557556,932.760437 685.567932,947.702576 677.311768,961.357788 
	C675.417664,964.490356 673.424377,967.624634 672.042664,970.990417 
	C670.099182,975.724792 666.949646,977.086609 661.370117,975.371338 
	C671.784058,960.225220 679.322815,944.285278 674.799927,924.782104 
	C668.213501,924.782104 660.958374,924.782104 653.361206,924.782104 
	C653.361206,918.158386 653.361206,912.095825 653.361206,905.633423 
	C655.368896,905.633423 657.429993,905.633423 660.082336,905.633423 
	C660.082336,909.386414 660.082336,913.284241 660.082336,917.821045 
	C665.895813,917.821045 671.164490,917.821045 676.921753,917.821655 
z"/>
<path fill="#23343C" opacity="1.000000" stroke="none" 
	d="
M447.495941,971.681519 
	C447.492554,955.935486 447.492554,940.653259 447.492554,924.767883 
	C440.679657,924.767883 434.119202,924.767883 427.293640,924.767883 
	C427.293640,922.243958 427.293640,920.319519 427.293640,918.101746 
	C437.795990,918.101746 448.373444,918.101746 459.333771,918.101746 
	C459.333771,919.945862 459.333771,921.829834 459.333771,924.043396 
	C458.113922,924.369446 456.730286,924.739258 454.959351,925.212585 
	C454.959351,941.868652 454.959351,958.609863 454.959351,975.919434 
	C451.804047,975.177490 447.290070,978.875183 447.495941,971.681519 
z"/>
<path fill="#23343C" opacity="1.000000" stroke="none" 
	d="
M411.594910,928.965698 
	C412.087189,925.316101 410.639008,924.484314 407.640717,924.563599 
	C400.521301,924.751953 393.393463,924.624268 385.977509,924.624268 
	C385.977509,922.181946 385.977509,920.256165 385.977509,918.067993 
	C396.768768,918.067993 407.532898,918.067993 418.611542,918.067993 
	C418.611542,937.290161 418.611542,956.359131 418.611542,975.730103 
	C416.441620,975.730103 414.354950,975.730103 411.597504,975.730103 
	C411.597504,960.317139 411.597504,944.894226 411.594910,928.965698 
z"/>
<path fill="#203139" opacity="1.000000" stroke="none" 
	d="
M704.524414,973.596924 
	C699.478516,974.846680 694.726807,975.843689 689.449829,976.950806 
	C689.449829,973.796021 689.449829,971.895325 689.449829,969.934753 
	C689.933044,969.748657 690.388367,969.419312 690.841919,969.421570 
	C700.211914,969.469116 700.204407,970.440552 700.167053,959.673035 
	C700.127258,948.199036 700.158020,936.724792 700.158020,924.910339 
	C697.429504,924.731750 695.006104,924.573120 692.218750,924.390686 
	C692.218750,922.402100 692.218750,920.495056 692.218750,918.203735 
	C696.998535,918.203735 701.889099,918.203735 707.383423,918.203735 
	C707.383423,923.557800 707.384644,928.999207 707.383118,934.440674 
	C707.380310,944.273193 707.578491,954.112427 707.254944,963.934448 
	C707.150879,967.094299 705.669739,970.208801 704.524414,973.596924 
z"/>
<path fill="#1F2F39" opacity="1.000000" stroke="none" 
	d="
M558.198059,928.016724 
	C558.198059,944.123169 558.198059,959.733154 558.198059,975.680725 
	C555.916321,975.680725 553.838928,975.680725 551.185425,975.680725 
	C551.185425,958.990906 551.185425,942.138123 551.185425,925.086243 
	C548.936584,924.757874 547.201416,924.504517 545.262207,924.221375 
	C545.262207,922.253906 545.262207,920.469055 545.262207,918.253784 
	C549.301086,918.253784 553.486755,918.253784 558.198059,918.253784 
	C558.198059,921.311829 558.198059,924.416016 558.198059,928.016724 
z"/>
<path fill="#21323A" opacity="1.000000" stroke="none" 
	d="
M637.989685,930.134766 
	C637.989319,928.179932 637.989319,926.708862 637.989319,925.053772 
	C635.886292,924.746216 634.150208,924.492310 632.232727,924.211853 
	C632.232727,922.225037 632.232727,920.434570 632.232727,918.233398 
	C636.346924,918.233398 640.556458,918.233398 645.003174,918.233398 
	C645.003174,929.122864 645.003174,940.025757 645.003174,951.289185 
	C642.860046,951.289185 640.805664,951.289185 637.990051,951.289185 
	C637.990051,944.414551 637.990051,937.516541 637.989685,930.134766 
z"/>
<path fill="#203139" opacity="1.000000" stroke="none" 
	d="
M394.190277,942.254639 
	C394.199677,953.649170 394.199677,964.567749 394.199677,975.754761 
	C391.779114,975.754761 389.707947,975.754761 387.323242,975.754761 
	C387.323242,963.998840 387.323242,952.320374 387.323242,939.376587 
	C389.914795,940.284363 392.047821,941.031494 394.190277,942.254639 
z"/>
<path fill="#FAFBFC" opacity="1.000000" stroke="none" 
	d="
M156.811707,800.000000 
	C156.811676,785.054138 156.811676,770.608337 156.811676,755.859619 
	C163.403183,755.859619 169.461746,755.859619 175.797775,755.859619 
	C175.797775,781.639587 175.797775,807.199219 175.797775,833.047852 
	C169.509598,833.047852 163.446625,833.047852 156.811722,833.047852 
	C156.811722,822.045227 156.811722,811.272644 156.811707,800.000000 
z"/>
<path fill="#FCFCFD" opacity="1.000000" stroke="none" 
	d="
M597.039185,955.991028 
	C597.064880,945.696838 597.087097,935.901489 597.133484,926.106262 
	C597.134827,925.816772 597.390686,925.528503 597.672302,924.935425 
	C603.590149,924.935425 609.646667,924.935425 616.048462,924.935425 
	C616.048462,939.517334 616.048462,954.040405 616.048462,968.947388 
	C609.952515,968.947388 603.771973,968.947388 597.039185,968.947388 
	C597.039185,964.700256 597.039185,960.595093 597.039185,955.991028 
z"/>
</svg>